<svg width="76" height="36" viewBox="0 0 76 36" fill="none" xmlns="http://www.w3.org/2000/svg">
<path d="M1 34.5C9.1257 29.5267 14.5846 24.4204 14.9231 16.0911C15.1655 10.1261 14.9231 2 12.1257 2C9.32833 2 8.27223 10.2123 8.52908 16.0911C8.874 23.9857 10.5614 32.9057 18.7861 32.9057C28.5 32.9057 23.1947 16.0911 32.5 16.0911C39.4278 16.0911 35.1346 32.9057 42.4209 32.9057C49.7072 32.9057 45.2293 16.0911 52.5 16.0911C61.5779 16.0911 54.8816 32.9057 62.8671 32.9057C69.8323 32.9057 69.7516 17.4174 71.137 16.0911C72.5223 14.7649 74.2896 15.5385 75 16.0911" stroke="white" stroke-width="3"/>
</svg>
